# xmcd CD database file
#
# Track frame offsets:
#	150
#	31160
#	49777
#	86405
#	107260
#	138796
#	178822
#	212607
#	246602
#
# Disc length: 3838 seconds
#
# Revision: 1
# Processed by: cddbd v1.5.2PL0 Copyright (c) Steve Scherf et al.
# Submitted via: CDex 1.51
#
DISCID=710efc09
DTITLE=Tubby Hayes - Seven Classic Albums CD 3 (Tubbs and Tubbs in N.Y.)
DYEAR=1961
DGENRE=Jazz
TTITLE0=Falling In Love With Love
TTITLE1=The Folks Who Live on the Hill
TTITLE2=Wonderful! Wonderful!
TTITLE3=You For Me
TTITLE4=A Pint of Bitter
TTITLE5=Airegin
TTITLE6=Opus Ocean
TTITLE7=Soon
TTITLE8=Doxy
EXTD=YEAR: 1961
EXTT0=
EXTT1=
EXTT2=
EXTT3=
EXTT4=
EXTT5=
EXTT6=
EXTT7=
EXTT8=
PLAYORDER=
